<svg xmlns="http://www.w3.org/2000/svg" xmlns:xlink="http://www.w3.org/1999/xlink" id="Ebene_1" x="0" y="0" enable-background="new 0 0 36 32" version="1.1" viewBox="0 0 36 32" xml:space="preserve"><style type="text/css">.st0{fill:none;stroke:#96c;stroke-width:1.4173;stroke-miterlimit:10}.st1{fill:url(#SVGID_1_)}.st2{fill:#744c9e}.st3{fill:none;stroke:#744c9e;stroke-width:1.4173;stroke-miterlimit:10}</style><g><line x1="24.1" x2="28.3" y1="10.7" y2="10.7" class="st0"/><line x1="21.2" x2="26.9" y1="13.5" y2="13.5" class="st0"/><line x1="19.8" x2="19.7" y1="14.9" y2="9.2" class="st0"/><line x1="17" x2="16.9" y1="17.8" y2="12" class="st0"/><linearGradient id="SVGID_1_" x1="-274.601" x2="-274.601" y1="392.268" y2="371.268" gradientTransform="matrix(0.7071 0.7071 -0.7071 0.7071 484.2914 -61.1829)" gradientUnits="userSpaceOnUse"><stop offset="0" stop-color="#FFF" stop-opacity="0"/><stop offset="1" stop-color="#FFB238"/></linearGradient><path d="M27.6,12.8L18.4,22c-1.6,1.6-5.7,0-5.7,0l0,0c0,0-1.6-4.1,0-5.7l9.2-9.2c1.6-1.6,4.1-1.6,5.7,0l0,0 C29.2,8.7,29.2,11.3,27.6,12.8z" class="st1"/><line x1="27.6" x2="13.1" y1="7.2" y2="21.7" class="st0"/><g><polygon points="10.4 25.4 8 25.8 12.9 20.8 14 21.8" class="st2"/></g><path d="M27.6,12.8L18.4,22h-5.7l0,0v-5.7l9.2-9.2c1.6-1.6,4.1-1.6,5.7,0l0,0C29.2,8.7,29.2,11.3,27.6,12.8z" class="st3"/></g></svg>