<svg xmlns="http://www.w3.org/2000/svg" xmlns:xlink="http://www.w3.org/1999/xlink" id="Ebene_1" x="0" y="0" enable-background="new 0 0 36 32" version="1.1" viewBox="0 0 36 32" xml:space="preserve"><style type="text/css">.st0,.st1{fill:none;stroke:#744c9e;stroke-width:1.4173;stroke-miterlimit:10}.st1{fill:url(#SVGID_1_);stroke:#96c}</style><path d="M18,18h4.5l5,3.5l0-3.5H29c1.7,0,3-1.3,3-3V9c0-1.7-1.3-3-3-3H18c-1.7,0-3,1.3-3,3v6C15,16.7,16.3,18,18,18z" class="st0"/><linearGradient id="SVGID_1_" x1="5.75" x2="18.871" y1="24.75" y2="11.629" gradientUnits="userSpaceOnUse"><stop offset="0" stop-color="#FFF" stop-opacity="0"/><stop offset="1" stop-color="#FFB238"/></linearGradient><path d="M18,24h-4.5l-5,3.5l0-3.5H7c-1.7,0-3-1.3-3-3v-6c0-1.7,1.3-3,3-3h11c1.7,0,3,1.3,3,3v6C21,22.7,19.7,24,18,24z" class="st1"/></svg>