<svg xmlns="http://www.w3.org/2000/svg" xmlns:xlink="http://www.w3.org/1999/xlink" id="Ebene_1" x="0" y="0" enable-background="new 0 0 36 32" version="1.1" viewBox="0 0 36 32" xml:space="preserve"><style type="text/css">.st0{fill:#ccb2e5;stroke:#744c9e;stroke-width:1.4173;stroke-miterlimit:10}.st1{fill:url(#SVGID_1_)}.st2{stroke:url(#SVGID_2_);stroke-width:1.4173}.st2,.st3{fill:none;stroke-miterlimit:10}.st3,.st4{stroke-width:1.4173}.st3{stroke:url(#SVGID_3_)}.st4{fill:#fff;stroke:#96c;stroke-miterlimit:140}.st5{fill:#744c9e}.st6{fill:url(#SVGID_4_)}</style><g><path d="M10,7c-1.6,0-3,1.4-3,3v2h10" class="st0"/><linearGradient id="SVGID_1_" x1="41.5" x2="41.5" y1="-55" y2="-37" gradientTransform="matrix(1 0 0 1 -24 62)" gradientUnits="userSpaceOnUse"><stop offset="0" stop-color="#FFF"/><stop offset=".18" stop-color="#FFFEFC"/><stop offset=".325" stop-color="#FFFAF2"/><stop offset=".457" stop-color="#FFF3E1"/><stop offset=".582" stop-color="#FFEAC9"/><stop offset=".702" stop-color="#FFDEAA"/><stop offset=".818" stop-color="#FFD084"/><stop offset=".928" stop-color="#FFBF59"/><stop offset="1" stop-color="#FFB238"/></linearGradient><path d="M10,7c1.6,0,3,1.4,3,3v12c0,1.6,1.3,3,3,3s3-1.4,3-3h6V10c0-1.6-1.4-3-3-3H10z" class="st1"/><linearGradient id="SVGID_2_" x1="17.854" x2="17.854" y1="22" y2="6.291" gradientUnits="userSpaceOnUse"><stop offset="0" stop-color="#96C"/><stop offset="1" stop-color="#744C9E"/></linearGradient><path d="M10,7h12c1.6,0,3,1.4,3,3v12" class="st2"/><linearGradient id="SVGID_3_" x1="13" x2="13" y1="25.709" y2="6.291" gradientUnits="userSpaceOnUse"><stop offset="0" stop-color="#96C"/><stop offset="1" stop-color="#744C9E"/></linearGradient><path d="M16,25c-1.7,0-3-1.4-3-3V10c0-1.6-1.4-3-3-3" class="st3"/><path d="M16,25h9c1.6,0,3-1.4,3-3v-1h-9v1C19,23.6,17.6,25,16,25z" class="st4"/></g><path d="M17,10.5c0.6,0,1,0.4,1,1s-0.4,1-1,1c-0.6,0-1-0.4-1-1C16,10.9,16.6,10.5,17,10.5z" class="st5"/><path d="M21.2,10.6c0.6,0,1,0.4,1,1s-0.4,1-1,1c-0.6,0-1-0.4-1-1C20.3,11.1,20.6,10.6,21.2,10.6z" class="st5"/><linearGradient id="SVGID_4_" x1="19.25" x2="19.25" y1="14.5" y2="18.316" gradientUnits="userSpaceOnUse"><stop offset="0" stop-color="#96C"/><stop offset="1" stop-color="#744C9E"/></linearGradient><path d="M22.2,14.5c0,0,0,1.1,0,1.3c0,0.6-0.3,1.1-0.8,1.6c-0.5,0.5-1.3,0.9-2.2,0.9s-1.7-0.4-2.2-0.9	c-0.5-0.5-0.8-1-0.8-1.6c0-0.3,0-1.3,0-1.3C17.9,14.5,20.6,14.5,22.2,14.5z" class="st6"/></svg>