<svg xmlns="http://www.w3.org/2000/svg" xmlns:xlink="http://www.w3.org/1999/xlink" id="Ebene_1" x="0" y="0" enable-background="new 0 0 36 32" version="1.1" viewBox="0 0 36 32" xml:space="preserve"><style type="text/css">.st0,.st1{fill:#fff}.st1{stroke:#ffb238;stroke-width:1.4173;stroke-miterlimit:10}.st2{fill:#96c}.st3{fill:url(#SVGID_1_)}.st4{fill:#744c9e}</style><circle cx="15.4" cy="19.2" r="6.8" class="st0"/><polygon points="25.3 21.5 17.7 21.5 21.5 14.8 25.3 8.2 29.2 14.8 33 21.5" class="st1"/><g><path d="M15.5,13.4c3.4,0,6.1,2.7,6.1,6.1s-2.7,6.1-6.1,6.1s-6.1-2.7-6.1-6.1S12.1,13.4,15.5,13.4 M15.5,12 C11.4,12,8,15.4,8,19.5s3.4,7.5,7.5,7.5s7.5-3.4,7.5-7.5S19.6,12,15.5,12L15.5,12z" class="st2"/></g><g><linearGradient id="SVGID_1_" x1="9" x2="9" y1="17.291" y2="6.708" gradientUnits="userSpaceOnUse"><stop offset="0" stop-color="#FFF" stop-opacity="0"/><stop offset="1" stop-color="#FFB238"/></linearGradient><rect width="10.6" height="10.6" x="3.7" y="6.7" class="st3"/><path d="M13.6,7.4v9.2H4.4V7.4H13.6 M15,6H3v12h12V6L15,6z" class="st4"/></g></svg>